<svg viewBox="1240 0 410 400" width="200" height="200" xmlns="http://www.w3.org/2000/svg">
	<rect x="1240" width="410" height="400" fill="#1e1e2e" rx="12" />
	<path d="M 1304.761719 242.855469 C 1309.519531 233.335938 1357.140625 166.667969 1371.429688 142.855469 C 1380.949219 128.570313 1395.238281 104.761719 1404.761719 95.238281 C 1419.050781 71.429688 1428.570313 61.90625 1433.328125 57.144531 C 1438.101563 57.144531 1438.101563 57.144531 1457.140625 76.191406 C 1471.429688 95.238281 1504.761719 142.855469 1504.761719 142.855469 C 1504.761719 142.855469 1500 133.335938 1490.480469 123.808594 C 1476.191406 104.761719 1442.859375 66.667969 1442.859375 66.667969 C 1442.859375 66.667969 1442.859375 76.191406 1438.101563 90.476563 L 1438.101563 114.285156 L 1442.859375 119.046875 C 1447.621094 133.335938 1495.238281 200 1490.480469 200 C 1466.671875 166.667969 1442.859375 133.335938 1438.101563 128.570313 C 1433.328125 123.808594 1433.328125 123.808594 1423.808594 138.097656 C 1400 166.667969 1361.910156 219.046875 1361.910156 223.808594 C 1361.910156 223.808594 1347.621094 228.570313 1333.328125 233.335938 C 1314.289063 242.855469 1304.761719 242.855469 1304.761719 242.855469 Z M 1423.808594 271.429688 C 1414.289063 257.144531 1395.238281 242.855469 1376.191406 233.335938 C 1366.671875 228.570313 1366.671875 228.570313 1376.191406 228.570313 C 1390.480469 233.335938 1414.289063 247.617188 1423.808594 261.90625 L 1428.570313 266.667969 L 1433.328125 261.90625 C 1447.621094 247.617188 1476.191406 233.335938 1500 223.808594 C 1504.761719 223.808594 1504.761719 223.808594 1500 219.046875 C 1490.480469 204.761719 1490.480469 204.761719 1500 214.285156 L 1504.761719 223.808594 L 1528.570313 233.335938 C 1542.859375 238.097656 1552.378906 242.855469 1557.140625 242.855469 C 1557.140625 242.855469 1542.859375 238.097656 1528.570313 233.335938 L 1509.519531 228.570313 L 1500 233.335938 C 1476.191406 242.855469 1461.910156 252.382813 1442.859375 271.429688 L 1428.570313 285.714844 Z M 1438.089844 371.429688 C 1442.859375 366.667969 1452.378906 357.144531 1461.910156 347.617188 C 1500 314.285156 1542.859375 285.714844 1590.480469 266.667969 C 1600 261.90625 1604.761719 261.90625 1604.761719 261.90625 C 1604.761719 261.90625 1600 257.144531 1590.480469 257.144531 C 1580.949219 257.144531 1576.191406 252.382813 1576.191406 252.382813 C 1576.191406 252.382813 1576.191406 252.382813 1590.480469 257.144531 L 1604.761719 261.90625 L 1600 252.382813 C 1590.480469 238.097656 1528.570313 142.855469 1514.289063 123.808594 C 1495.238281 90.476563 1466.671875 57.144531 1447.621094 33.335938 L 1438.089844 19.046875 L 1438.089844 38.097656 L 1428.570313 47.617188 C 1404.761719 71.429688 1371.429688 119.046875 1304.761719 228.570313 L 1295.238281 242.855469 L 1280.949219 247.617188 C 1266.671875 257.144531 1257.140625 261.90625 1257.140625 261.90625 C 1257.140625 261.90625 1266.671875 266.667969 1271.429688 266.667969 C 1323.808594 285.714844 1385.710938 328.570313 1419.050781 366.667969 C 1423.808594 371.429688 1428.570313 376.191406 1428.570313 376.191406 C 1433.328125 380.953125 1438.089844 376.191406 1438.089844 371.429688 Z M 1423.808594 385.714844 C 1400 352.382813 1352.378906 314.285156 1304.761719 290.476563 C 1285.710938 280.953125 1252.378906 266.667969 1242.859375 261.90625 C 1238.101563 261.90625 1238.101563 261.90625 1238.101563 261.90625 C 1238.101563 261.90625 1247.621094 242.855469 1261.910156 223.808594 C 1347.621094 90.476563 1419.050781 0 1433.328125 0 C 1442.859375 0 1471.429688 38.097656 1514.289063 95.238281 C 1538.101563 133.335938 1604.761719 228.570313 1623.808594 257.144531 L 1628.570313 261.90625 L 1614.289063 266.667969 C 1576.191406 280.953125 1528.570313 309.523438 1495.238281 333.335938 C 1480.949219 342.855469 1452.378906 371.429688 1442.859375 385.714844 C 1438.089844 390.476563 1438.089844 390.476563 1438.089844 390.476563 C 1433.328125 395.238281 1428.570313 395.238281 1423.808594 385.714844 Z" fill="#89b4fa" />
</svg>